<?xml version="1.0" encoding="iso-8859-1"?>
<!-- Generator: Adobe Illustrator 19.0.0, SVG Export Plug-In . SVG Version: 6.00 Build 0)  -->
<svg version="1.1" id="Layer_1" xmlns="http://www.w3.org/2000/svg" xmlns:xlink="http://www.w3.org/1999/xlink" x="0px" y="0px"
	 viewBox="0 0 511.744 511.744" style="enable-background:new 0 0 511.744 511.744;" xml:space="preserve">
<g>
	<g>
		<path d="M479.418,449.836c-3.58-6.164-10.228-9.992-17.352-9.992c-3.496,0-6.952,0.936-9.984,2.692
			c-32.92,19.112-70.308,29.208-108.124,29.208c-91.868,0-172.94-57.54-203.464-143.772h185.14c11.028,0,20-8.972,20-20
			s-8.972-20-20-20h-195.1c-1.624-10.992-2.416-21.496-2.416-32.004c0-10.504,0.792-21.004,2.416-31.996h195.104
			c11.028,0,20-8.972,20-20s-8.972-20-20-20H140.494C171.054,97.624,252.13,39.996,343.958,39.996
			c37.988,0,75.376,10.044,108.124,29.044c3.04,1.768,6.5,2.696,10.004,2.696c7.116,0,13.756-3.82,17.328-9.968
			c5.536-9.544,2.28-21.812-7.256-27.352C433.35,11.904,389.018,0,343.954,0C228.418,0,130.15,73.8,98.474,183.972H49.622
			c-11.028,0-20,8.972-20,20s8.972,20,20,20h40.536c-1.368,10.972-2.036,21.48-2.036,31.996c0,10.52,0.668,21.032,2.036,32.004
			H49.622c-11.028,0-20,8.972-20,20s8.972,20,20,20h48.88c32.352,108.352,132.848,183.772,245.452,183.772
			c44.928,0,89.26-11.94,128.212-34.536C481.71,471.66,484.962,459.384,479.418,449.836z M468.146,470.292
			c-37.728,21.884-80.672,33.456-124.188,33.456c-110.056,0-208.176-74.38-238.608-180.872c-0.488-1.72-2.06-2.904-3.844-2.904
			H49.622c-6.616,0-12-5.384-12-12c0-6.616,5.384-12,12-12h45.1c1.156,0,2.26-0.5,3.02-1.376s1.104-2.036,0.94-3.184
			c-1.728-12.26-2.564-23.856-2.564-35.444c0-11.584,0.84-23.176,2.564-35.436c0.164-1.148-0.18-2.308-0.94-3.184
			c-0.76-0.876-1.86-1.376-3.02-1.376h-45.1c-6.616,0-12-5.384-12-12c0-6.616,5.384-12,12-12h51.88c1.8,0,3.38-1.204,3.86-2.94
			C135.158,80.748,231.042,7.996,343.958,7.996c43.652,0,86.596,11.528,124.184,33.336c5.724,3.328,7.68,10.688,4.356,16.416
			c-2.148,3.692-6.136,5.984-10.412,5.984c-2.096,0-4.168-0.556-5.992-1.616c-33.968-19.704-72.744-30.12-112.14-30.12
			c-97.148,0-182.684,62.184-212.848,154.74c-0.396,1.212-0.184,2.548,0.568,3.588c0.752,1.036,1.956,1.648,3.236,1.648h190.728
			c6.616,0,12,5.384,12,12c0,6.616-5.384,12-12,12H127.106c-1.964,0-3.64,1.424-3.948,3.364
			c-2.044,12.648-3.036,24.632-3.036,36.632c0,12.004,0.992,23.992,3.036,36.64c0.312,1.94,1.984,3.364,3.948,3.364h198.532
			c6.616,0,12,5.384,12,12c0,6.616-5.384,12-12,12H134.91c-1.284,0-2.484,0.612-3.232,1.652c-0.756,1.036-0.964,2.368-0.568,3.588
			c30.12,92.436,115.66,154.536,212.848,154.536c39.224,0,78-10.472,112.14-30.284c1.816-1.052,3.88-1.612,5.968-1.612
			c4.28,0,8.28,2.304,10.432,6.008C475.83,459.592,473.878,466.964,468.146,470.292z"/>
	</g>
</g>
<g>
</g>
<g>
</g>
<g>
</g>
<g>
</g>
<g>
</g>
<g>
</g>
<g>
</g>
<g>
</g>
<g>
</g>
<g>
</g>
<g>
</g>
<g>
</g>
<g>
</g>
<g>
</g>
<g>
</g>
</svg>
